<?xml version="1.0" encoding="UTF-8"?><svg xmlns="http://www.w3.org/2000/svg" xmlns:xlink="http://www.w3.org/1999/xlink" fill-opacity="1" color-rendering="auto" color-interpolation="auto" text-rendering="auto" stroke="black" stroke-linecap="square" width="1080" stroke-miterlimit="10" shape-rendering="auto" stroke-opacity="1" fill="black" stroke-dasharray="none" font-weight="normal" stroke-width="1" height="434" font-family="'Dialog'" font-style="normal" stroke-linejoin="miter" font-size="12px" stroke-dashoffset="0" image-rendering="auto">
  <!--Generated by ySVG 2.5-->
  <defs id="genericDefs"/>
  <g>
    <defs id="defs1">
      <clipPath clipPathUnits="userSpaceOnUse" id="clipPath1">
        <path d="M0 0 L1080 0 L1080 434 L0 434 L0 0 Z"/>
      </clipPath>
      <clipPath clipPathUnits="userSpaceOnUse" id="clipPath2">
        <path d="M209 33 L1289 33 L1289 467 L209 467 L209 33 Z"/>
      </clipPath>
    </defs>
    <g fill="white" text-rendering="geometricPrecision" shape-rendering="geometricPrecision" transform="translate(-209,-33)" stroke="white">
      <rect x="209" width="1080" height="434" y="33" clip-path="url(#clipPath2)" stroke="none"/>
    </g>
    <g fill="yellow" text-rendering="geometricPrecision" shape-rendering="geometricPrecision" transform="matrix(1,0,0,1,-209,-33)" stroke="yellow">
      <rect x="608.3295" y="212" clip-path="url(#clipPath2)" width="208.6546" rx="4" ry="4" height="44" stroke="none"/>
    </g>
    <g font-size="16px" stroke-linecap="butt" transform="matrix(1,0,0,1,-209,-33)" text-rendering="geometricPrecision" font-family="sans-serif" shape-rendering="geometricPrecision" stroke-miterlimit="1.45">
      <text x="613.4107" xml:space="preserve" y="239.5391" clip-path="url(#clipPath2)" stroke="none">ex:EpistemicComparison</text>
      <rect x="608.3295" y="212" clip-path="url(#clipPath2)" fill="none" width="208.6546" rx="4" ry="4" height="44"/>
    </g>
    <g fill="yellow" text-rendering="geometricPrecision" shape-rendering="geometricPrecision" transform="matrix(1,0,0,1,-209,-33)" stroke="yellow">
      <rect x="1076.0318" y="212" clip-path="url(#clipPath2)" width="168.7682" rx="4" ry="4" height="44" stroke="none"/>
    </g>
    <g font-size="16px" stroke-linecap="butt" transform="matrix(1,0,0,1,-209,-33)" text-rendering="geometricPrecision" font-family="sans-serif" shape-rendering="geometricPrecision" stroke-miterlimit="1.45">
      <text x="1086.119" xml:space="preserve" y="239.5391" clip-path="url(#clipPath2)" stroke="none">ex:SelectionResult</text>
      <rect x="1076.0318" y="212" clip-path="url(#clipPath2)" fill="none" width="168.7682" rx="4" ry="4" height="44"/>
    </g>
    <g fill="yellow" text-rendering="geometricPrecision" shape-rendering="geometricPrecision" transform="matrix(1,0,0,1,-209,-33)" stroke="yellow">
      <rect x="623.4727" y="35" clip-path="url(#clipPath2)" width="178.3682" rx="4" ry="4" height="44" stroke="none"/>
    </g>
    <g font-size="16px" stroke-linecap="butt" transform="matrix(1,0,0,1,-209,-33)" text-rendering="geometricPrecision" font-family="sans-serif" shape-rendering="geometricPrecision" stroke-miterlimit="1.45">
      <text x="628.8052" xml:space="preserve" y="62.5391" clip-path="url(#clipPath2)" stroke="none">ex:SelectionCriterion</text>
      <rect x="623.4727" y="35" clip-path="url(#clipPath2)" fill="none" width="178.3682" rx="4" ry="4" height="44"/>
    </g>
    <g fill="yellow" text-rendering="geometricPrecision" shape-rendering="geometricPrecision" transform="matrix(1,0,0,1,-209,-33)" stroke="yellow">
      <rect x="529.5187" y="412.8" clip-path="url(#clipPath2)" width="264.3841" rx="4" ry="4" height="44" stroke="none"/>
    </g>
    <g font-size="16px" stroke-linecap="butt" transform="matrix(1,0,0,1,-209,-33)" text-rendering="geometricPrecision" font-family="sans-serif" shape-rendering="geometricPrecision" stroke-miterlimit="1.45">
      <text x="534.4138" xml:space="preserve" y="440.3391" clip-path="url(#clipPath2)" stroke="none">ex:HapaxLegomenonEvaluation</text>
      <rect x="529.5187" y="412.8" clip-path="url(#clipPath2)" fill="none" width="264.3841" rx="4" ry="4" height="44"/>
    </g>
    <g fill="yellow" text-rendering="geometricPrecision" shape-rendering="geometricPrecision" transform="matrix(1,0,0,1,-209,-33)" stroke="yellow">
      <rect x="1050.3318" y="302.428" clip-path="url(#clipPath2)" width="220.1682" rx="4" ry="4" height="44" stroke="none"/>
    </g>
    <g font-size="16px" stroke-linecap="butt" transform="matrix(1,0,0,1,-209,-33)" text-rendering="geometricPrecision" font-family="sans-serif" shape-rendering="geometricPrecision" stroke-miterlimit="1.45">
      <text x="1058.3339" xml:space="preserve" y="329.9671" clip-path="url(#clipPath2)" stroke="none">ex:CriterionMeasurement</text>
      <rect x="1050.3318" y="302.428" clip-path="url(#clipPath2)" fill="none" width="220.1682" rx="4" ry="4" height="44"/>
    </g>
    <g fill="yellow" text-rendering="geometricPrecision" shape-rendering="geometricPrecision" transform="matrix(1,0,0,1,-209,-33)" stroke="yellow">
      <rect x="1034.3068" y="420" clip-path="url(#clipPath2)" width="252.2182" rx="4" ry="4" height="44" stroke="none"/>
    </g>
    <g font-size="16px" stroke-linecap="butt" transform="matrix(1,0,0,1,-209,-33)" text-rendering="geometricPrecision" font-family="sans-serif" shape-rendering="geometricPrecision" stroke-miterlimit="1.45">
      <text x="1045.2245" xml:space="preserve" y="447.5391" clip-path="url(#clipPath2)" stroke="none">ex:ProductivityMeasurement</text>
      <rect x="1034.3068" y="420" clip-path="url(#clipPath2)" fill="none" width="252.2182" rx="4" ry="4" height="44"/>
    </g>
    <g fill="yellow" text-rendering="geometricPrecision" shape-rendering="geometricPrecision" transform="matrix(1,0,0,1,-209,-33)" stroke="yellow">
      <rect x="211.2818" y="158.84" clip-path="url(#clipPath2)" width="188.9682" rx="4" ry="4" height="44" stroke="none"/>
    </g>
    <g font-size="16px" stroke-linecap="butt" transform="matrix(1,0,0,1,-209,-33)" text-rendering="geometricPrecision" font-family="sans-serif" shape-rendering="geometricPrecision" stroke-miterlimit="1.45">
      <text x="223.426" xml:space="preserve" y="186.3791" clip-path="url(#clipPath2)" stroke="none">ex:RefraimingModus</text>
      <rect x="211.2818" y="158.84" clip-path="url(#clipPath2)" fill="none" width="188.9682" rx="4" ry="4" height="44"/>
    </g>
    <g fill="yellow" text-rendering="geometricPrecision" shape-rendering="geometricPrecision" transform="matrix(1,0,0,1,-209,-33)" stroke="yellow">
      <rect x="1053.9318" y="35" clip-path="url(#clipPath2)" width="212.9682" rx="4" ry="4" height="44" stroke="none"/>
    </g>
    <g font-size="16px" stroke-linecap="butt" transform="matrix(1,0,0,1,-209,-33)" text-rendering="geometricPrecision" font-family="sans-serif" shape-rendering="geometricPrecision" stroke-miterlimit="1.45">
      <text x="1061.1073" xml:space="preserve" y="62.5391" clip-path="url(#clipPath2)" stroke="none">framester:OntologyClass</text>
      <rect x="1053.9318" y="35" clip-path="url(#clipPath2)" fill="none" width="212.9682" rx="4" ry="4" height="44"/>
    </g>
    <g fill="yellow" text-rendering="geometricPrecision" shape-rendering="geometricPrecision" transform="matrix(1,0,0,1,-209,-33)" stroke="yellow">
      <rect x="1043.9318" y="86" clip-path="url(#clipPath2)" width="232.9682" rx="4" ry="4" height="44" stroke="none"/>
    </g>
    <g font-size="16px" stroke-linecap="butt" transform="matrix(1,0,0,1,-209,-33)" text-rendering="geometricPrecision" font-family="sans-serif" shape-rendering="geometricPrecision" stroke-miterlimit="1.45">
      <text x="1047.9862" xml:space="preserve" y="113.5391" clip-path="url(#clipPath2)" stroke="none">framester:OntologyProperty</text>
      <rect x="1043.9318" y="86" clip-path="url(#clipPath2)" fill="none" width="232.9682" rx="4" ry="4" height="44"/>
    </g>
    <g fill="yellow" text-rendering="geometricPrecision" shape-rendering="geometricPrecision" transform="matrix(1,0,0,1,-209,-33)" stroke="yellow">
      <rect x="211.2818" y="362.06" clip-path="url(#clipPath2)" width="214.5682" rx="4" ry="4" height="44" stroke="none"/>
    </g>
    <g font-size="16px" stroke-linecap="butt" transform="matrix(1,0,0,1,-209,-33)" text-rendering="geometricPrecision" font-family="sans-serif" shape-rendering="geometricPrecision" stroke-miterlimit="1.45">
      <text x="222.5542" xml:space="preserve" y="389.5991" clip-path="url(#clipPath2)" stroke="none">ex:TheoreticalFragment</text>
      <rect x="211.2818" y="362.06" clip-path="url(#clipPath2)" fill="none" width="214.5682" rx="4" ry="4" height="44"/>
    </g>
    <g stroke-linecap="butt" transform="matrix(1,0,0,1,-209,-33)" fill="navy" text-rendering="geometricPrecision" shape-rendering="geometricPrecision" stroke="navy" stroke-miterlimit="1.45">
      <path fill="none" d="M820.9717 234 L1065.0222 234" clip-path="url(#clipPath2)"/>
      <path d="M812.9717 234 C812.9717 231.7909 814.7626 230 816.9717 230 C819.1809 230 820.9717 231.7909 820.9717 234 C820.9717 236.2091 819.1809 238 816.9717 238 C814.7626 238 812.9717 236.2091 812.9717 234 Z" clip-path="url(#clipPath2)" stroke="none"/>
      <path d="M1076.0222 234 L1064.0222 228 L1064.0222 240 Z" clip-path="url(#clipPath2)" stroke="none"/>
      <rect x="856.0704" y="222.6875" clip-path="url(#clipPath2)" fill="white" width="180.875" height="22.625" stroke="none"/>
      <text x="858.0704" font-size="16px" y="239.5391" clip-path="url(#clipPath2)" font-family="sans-serif" stroke="none" xml:space="preserve">ex:hasSelectionResult</text>
      <path fill="none" d="M712.6568 208.0046 L712.6568 89.9867" clip-path="url(#clipPath2)"/>
      <path d="M712.6568 216.0046 C710.4476 216.0046 708.6568 214.2138 708.6568 212.0046 C708.6568 209.7955 710.4476 208.0046 712.6568 208.0046 C714.866 208.0046 716.6568 209.7955 716.6568 212.0046 C716.6568 214.2138 714.866 216.0046 712.6568 216.0046 Z" clip-path="url(#clipPath2)" stroke="none"/>
      <path d="M712.6568 78.9867 L706.6568 90.9867 L718.6568 90.9867 Z" clip-path="url(#clipPath2)" stroke="none"/>
      <rect x="612.6646" y="134.1875" clip-path="url(#clipPath2)" fill="white" width="199.9844" height="22.625" stroke="none"/>
      <text x="614.6646" font-size="16px" y="151.0391" clip-path="url(#clipPath2)" font-family="sans-serif" stroke="none" xml:space="preserve">ex:hasSelectionCriterion</text>
      <path fill="none" d="M661.7107 412.7832 L661.7107 264.0003" clip-path="url(#clipPath2)" stroke="black"/>
      <path fill="black" d="M661.7107 256.0003 L656.7107 268.0003 L661.7107 265.0003 L666.7107 268.0003 Z" clip-path="url(#clipPath2)" stroke="none"/>
      <rect x="597.1873" y="323.0875" clip-path="url(#clipPath2)" fill="white" width="129.0469" height="22.625" stroke="none"/>
    </g>
    <g font-size="16px" stroke-linecap="butt" transform="matrix(1,0,0,1,-209,-33)" text-rendering="geometricPrecision" font-family="sans-serif" shape-rendering="geometricPrecision" stroke-miterlimit="1.45">
      <text x="599.1873" xml:space="preserve" y="339.9391" clip-path="url(#clipPath2)" stroke="none">rdfs:subClassOf</text>
    </g>
    <g stroke-linecap="butt" transform="matrix(1,0,0,1,-209,-33)" fill="navy" text-rendering="geometricPrecision" shape-rendering="geometricPrecision" stroke="navy" stroke-miterlimit="1.45">
      <path fill="none" d="M739.4738 259.9962 L740.3019 314.4292 L740.9934 318.8036 L742.916 321.9283 L746.0695 323.8031 L750.454 324.428 L1039.3246 324.428" clip-path="url(#clipPath2)"/>
      <path d="M739.3521 251.9971 C741.561 251.9635 743.3789 253.7269 743.4125 255.9358 C743.4461 258.1447 741.6827 259.9626 739.4738 259.9962 C737.265 260.0298 735.447 258.2664 735.4135 256.0575 C735.3798 253.8486 737.1432 252.0307 739.3521 251.9971 Z" clip-path="url(#clipPath2)" stroke="none"/>
      <path d="M1050.3246 324.428 L1038.3246 318.428 L1038.3246 330.428 Z" clip-path="url(#clipPath2)" stroke="none"/>
      <rect x="769.8231" y="313.1155" clip-path="url(#clipPath2)" fill="white" width="236.4453" height="22.625" stroke="none"/>
      <text x="771.8231" font-size="16px" y="329.9671" clip-path="url(#clipPath2)" font-family="sans-serif" stroke="none" xml:space="preserve">ex:hasCriterionMeasurement</text>
      <path fill="none" d="M1160.4159 419.9839 L1160.4159 354.404" clip-path="url(#clipPath2)" stroke="black"/>
      <path fill="black" d="M1160.4159 346.404 L1155.4159 358.404 L1160.4159 355.404 L1165.4159 358.404 Z" clip-path="url(#clipPath2)" stroke="none"/>
      <rect x="1095.8925" y="371.9015" clip-path="url(#clipPath2)" fill="white" width="129.0469" height="22.625" stroke="none"/>
    </g>
    <g font-size="16px" stroke-linecap="butt" transform="matrix(1,0,0,1,-209,-33)" text-rendering="geometricPrecision" font-family="sans-serif" shape-rendering="geometricPrecision" stroke-miterlimit="1.45">
      <text x="1097.8925" xml:space="preserve" y="388.7531" clip-path="url(#clipPath2)" stroke="none">rdfs:subClassOf</text>
    </g>
    <g stroke-linecap="butt" transform="matrix(1,0,0,1,-209,-33)" fill="navy" text-rendering="geometricPrecision" shape-rendering="geometricPrecision" stroke="navy" stroke-miterlimit="1.45">
      <path fill="none" d="M653.8957 207.9666 L654.916 190.8223 L654.5508 186.4551 L652.8615 183.3356 L649.8479 181.4639 L645.51 180.84 L411.2463 180.84" clip-path="url(#clipPath2)"/>
      <path d="M653.4203 215.9525 C651.2151 215.8212 649.5338 213.9271 649.6651 211.7219 C649.7963 209.5166 651.6904 207.8353 653.8957 207.9666 C656.101 208.0979 657.7822 209.992 657.6509 212.1972 C657.5197 214.4024 655.6256 216.0837 653.4203 215.9525 Z" clip-path="url(#clipPath2)" stroke="none"/>
      <path d="M400.2463 180.84 L412.2463 186.84 L412.2463 174.84 Z" clip-path="url(#clipPath2)" stroke="none"/>
      <rect x="433.962" y="169.5275" clip-path="url(#clipPath2)" fill="white" width="196.9609" height="22.625" stroke="none"/>
      <text x="435.962" font-size="16px" y="186.3791" clip-path="url(#clipPath2)" font-family="sans-serif" stroke="none" xml:space="preserve">ex:hasRefraimingModus</text>
      <path fill="none" d="M1160.4159 212.0054 L1160.4159 138.0148" clip-path="url(#clipPath2)" stroke="black"/>
      <path fill="black" d="M1160.4159 130.0148 L1155.4159 142.0148 L1160.4159 139.0148 L1165.4159 142.0148 Z" clip-path="url(#clipPath2)" stroke="none"/>
      <rect x="1095.8925" y="159.6875" clip-path="url(#clipPath2)" fill="white" width="129.0469" height="22.625" stroke="none"/>
    </g>
    <g font-size="16px" stroke-linecap="butt" transform="matrix(1,0,0,1,-209,-33)" text-rendering="geometricPrecision" font-family="sans-serif" shape-rendering="geometricPrecision" stroke-miterlimit="1.45">
      <text x="1097.8925" xml:space="preserve" y="176.5391" clip-path="url(#clipPath2)" stroke="none">rdfs:subClassOf</text>
    </g>
    <g stroke-linecap="butt" transform="matrix(1,0,0,1,-209,-33)" fill="navy" text-rendering="geometricPrecision" shape-rendering="geometricPrecision" stroke="navy" stroke-miterlimit="1.45">
      <path fill="none" d="M604.3483 234 L568.36 234 L563.6766 234.5436 L559.6265 236.1745 L556.2097 238.8927 L553.4261 242.6981 L478.1739 375.3619 L475.3903 379.1673 L471.9734 381.8855 L467.9234 383.5164 L463.24 384.06 L436.8484 384.06" clip-path="url(#clipPath2)"/>
      <path d="M612.3483 234 C612.3483 236.2091 610.5574 238 608.3483 238 C606.1391 238 604.3483 236.2091 604.3483 234 C604.3483 231.7909 606.1391 230 608.3483 230 C610.5574 230 612.3483 231.7909 612.3483 234 Z" clip-path="url(#clipPath2)" stroke="none"/>
      <path d="M425.8484 384.06 L437.8484 390.06 L437.8484 378.06 Z" clip-path="url(#clipPath2)" stroke="none"/>
      <rect x="412.968" y="297.7175" clip-path="url(#clipPath2)" fill="white" width="205.6641" height="22.625" stroke="none"/>
      <text x="414.968" font-size="16px" y="314.5691" clip-path="url(#clipPath2)" font-family="sans-serif" stroke="none" xml:space="preserve">ex:includesInComparison</text>
    </g>
  </g>
</svg>
